<?xml version="1.0" encoding="UTF-8"?>
<svg id="_レイヤー_1" data-name="レイヤー_1" xmlns="http://www.w3.org/2000/svg" version="1.1" viewBox="0 0 230.68 313.8">
  <!-- Generator: Adobe Illustrator 29.5.1, SVG Export Plug-In . SVG Version: 2.1.0 Build 141)  -->
  <g>
    <circle cx="147.08" cy="88.77" r="63.61"/>
    <circle cx="60.14" cy="172.72" r="37.49"/>
    <circle cx="120.93" cy="219.87" r="21.24"/>
  </g>
  <g>
    <path d="M52.88,291.67h-7.06l-.96,5.13h-5.13l5.78-30.81h7.7l5.78,30.81h-5.13l-.96-5.13ZM51.91,286.54l-2.57-13.69-2.57,13.69h5.13Z"/>
    <path d="M68.75,271.13v6.42h8.99v5.13h-8.99v14.12h-5.13v-30.81h15.4v5.13h-10.27Z"/>
    <path d="M88.79,271.13v6.42h8.99v5.13h-8.99v14.12h-5.13v-30.81h15.4v5.13h-10.27Z"/>
    <path d="M115.37,291.67v5.13h-12.84v-30.81h5.13v25.67h7.7Z"/>
    <path d="M132.01,291.67h-7.06l-.96,5.13h-5.13l5.78-30.81h7.7l5.78,30.81h-5.13l-.96-5.13ZM131.05,286.54l-2.57-13.69-2.57,13.69h5.13Z"/>
    <path d="M154.67,271.13h-5.13v25.67h-5.13v-25.67h-5.13v-5.13h15.4v5.13Z"/>
    <path d="M173.56,266v23.11c0,4.25-3.45,7.7-7.7,7.7s-7.7-3.45-7.7-7.7v-23.11h5.13v23.11c0,1.42,1.15,2.57,2.57,2.57s2.57-1.15,2.57-2.57v-23.11h5.13Z"/>
    <path d="M193.61,289.1c0,4.25-3.45,7.7-7.7,7.7s-7.7-3.45-7.7-7.7v-2.57h5.13v2.57c0,1.42,1.15,2.57,2.57,2.57s2.57-1.15,2.57-2.57c0,0,0-.46-.11-.94-.09-.43-.71-2.25-3.91-4.86-6.76-5.51-6.25-8.68-6.25-9.61,0-4.25,3.45-7.7,7.7-7.7s7.7,3.45,7.7,7.7v2.57h-5.13v-2.57c0-1.42-1.15-2.57-2.57-2.57s-2.57,1.15-2.57,2.57c0,0,0,.46.11.94.09.43.71,2.25,3.91,4.86,6.76,5.51,6.25,8.68,6.25,9.61Z"/>
  </g>
</svg>